<svg height="64" viewBox="0 0 64 64" width="64" xmlns="http://www.w3.org/2000/svg" xmlns:xlink="http://www.w3.org/1999/xlink"><filter id="a" color-interpolation-filters="sRGB" height="1" width="1" x="0" y="0"><feColorMatrix values="2.66276 -0.403405 -0.403405 0 -0.08 -0.403405 2.66276 -0.403405 0 -0.08 -0.403405 -0.403405 2.66276 0 -0.08 0 0 0 1 0"/></filter><filter id="b" color-interpolation-filters="sRGB" height="1" width="1" x="0" y="0"><feColorMatrix values="2.66276 -0.403405 -0.403405 0 -0.08 -0.403405 2.66276 -0.403405 0 -0.08 -0.403405 -0.403405 2.66276 0 -0.08 0 0 0 1 0"/></filter><filter id="c" color-interpolation-filters="sRGB" height="1" width="1" x="0" y="0"><feColorMatrix values="2.66276 -0.403405 -0.403405 0 -0.08 -0.403405 2.66276 -0.403405 0 -0.08 -0.403405 -0.403405 2.66276 0 -0.08 0 0 0 1 0"/></filter><filter id="d" color-interpolation-filters="sRGB" height="1" width="1" x="0" y="0"><feColorMatrix values="2.66276 -0.403405 -0.403405 0 -0.08 -0.403405 2.66276 -0.403405 0 -0.08 -0.403405 -0.403405 2.66276 0 -0.08 0 0 0 1 0"/></filter><filter id="e" color-interpolation-filters="sRGB" height="1" width="1" x="0" y="0"><feColorMatrix values="2.66276 -0.403405 -0.403405 0 -0.08 -0.403405 2.66276 -0.403405 0 -0.08 -0.403405 -0.403405 2.66276 0 -0.08 0 0 0 1 0"/></filter><filter id="f" color-interpolation-filters="sRGB" height="1" width="1" x="0" y="0"><feColorMatrix values="2.66276 -0.403405 -0.403405 0 -0.08 -0.403405 2.66276 -0.403405 0 -0.08 -0.403405 -0.403405 2.66276 0 -0.08 0 0 0 1 0"/></filter><filter id="g" color-interpolation-filters="sRGB" height="1" width="1" x="0" y="0"><feColorMatrix values="2.66276 -0.403405 -0.403405 0 -0.08 -0.403405 2.66276 -0.403405 0 -0.08 -0.403405 -0.403405 2.66276 0 -0.08 0 0 0 1 0"/></filter><filter id="h" color-interpolation-filters="sRGB" height="1" width="1" x="0" y="0"><feColorMatrix values="2.66276 -0.403405 -0.403405 0 -0.08 -0.403405 2.66276 -0.403405 0 -0.08 -0.403405 -0.403405 2.66276 0 -0.08 0 0 0 1 0"/></filter><filter id="i" color-interpolation-filters="sRGB" height="1" width="1" x="0" y="0"><feColorMatrix values="2.66276 -0.403405 -0.403405 0 -0.08 -0.403405 2.66276 -0.403405 0 -0.08 -0.403405 -0.403405 2.66276 0 -0.08 0 0 0 1 0"/></filter><filter id="j" color-interpolation-filters="sRGB" height="1" width="1" x="0" y="0"><feColorMatrix values="2.66276 -0.403405 -0.403405 0 -0.08 -0.403405 2.66276 -0.403405 0 -0.08 -0.403405 -0.403405 2.66276 0 -0.08 0 0 0 1 0"/></filter><filter id="k" color-interpolation-filters="sRGB" height="1" width="1" x="0" y="0"><feColorMatrix values="2.66276 -0.403405 -0.403405 0 -0.08 -0.403405 2.66276 -0.403405 0 -0.08 -0.403405 -0.403405 2.66276 0 -0.08 0 0 0 1 0"/></filter><filter id="l" color-interpolation-filters="sRGB" height="1" width="1" x="0" y="0"><feColorMatrix values="2.66276 -0.403405 -0.403405 0 -0.08 -0.403405 2.66276 -0.403405 0 -0.08 -0.403405 -0.403405 2.66276 0 -0.08 0 0 0 1 0"/></filter><g fill="#aa551b" stroke="none"><path d="m34.629074 40.821831c-12.147964 2.609947-11.781877-9.242169-11.781877-12.379622-1.034322-4.183269 6.40216-17.638995 10.539449-19.730629 3.102967-2.091636 5.855328-1.898049 6.88965 1.239402 2.068645 3.137453-2.948587 19.537044-6.051554 22.674497-1.034322 1.045817 2.472977 7.150535.404332 8.196352z" fill="#d85f0b" filter="url(#c)" transform="matrix(1.0431798 0 0 1.0123436 .677292 -.852441)"/><path d="m30.175437 43.073415c0 5.229088-1.466812 15.75919-1.466812 20.988277l-6.89575-.061692c0-3.137452 1.034322-18.824712 1.034322-20.916348 2.068645-1.045817 5.259596 1.035581 7.32824-.01024z" fill="#d85f0b" filter="url(#a)" transform="matrix(1.0431798 0 0 1.0123436 .677292 -.852441)"/><path d="m13.762536 12.754949c1.034322 5.229087 2.793351 11.386927 4.861995 5.112022 1.034323-2.091634 3.102968-2.091634 1.034323 0-1.034323 2.091636-1.568942 17.273203 1.534025 17.273203 3.102967-3.137452 3.947201-24.47686 3.947201-28.6601302 0-4.1832694-5.171612-5.2290869-7.240256-3.1374521-3.102966 2.0916348-3.102966 6.2749047-4.137288 9.4123573z" fill="#d96e21" filter="url(#b)" transform="matrix(1.0361318 -.12020446 .11831122 1.005504 2.841412 1.676046)"/><path d="m22.847197 34.717113c-1.034322-3.137451-1.034322-6.274904-2.068644-10.458173 1.034322-6.274904-1.034322-12.549809-6.205934-13.595626-4.137289-1.0458176-7.240256-9.4123571-11.377545-7.3207223-1.0343222 3.1374521 3.1029668 10.4581743 4.137289 14.6414443 1.0343223 4.183269.7000012 6.453494 2.768646 11.68258 1.598942 5.244831 12.34819 11.898266 12.746188 5.050497z" fill="#d85f0b" filter="url(#d)" transform="matrix(1.0370332 -.11227921 .11051079 1.0063787 -1.313346 2.91341)"/><path d="m24.915842 4.3884091c-4.137289-1.0458174-2.068645 8.3665399-5.171611 11.5039919.52508 1.390839-1.61359 18.475874-.320082 14.292605 1.034322-4.18327 8.59466-24.7507795 5.491693-25.7965969z" fill="#bc4e09" filter="url(#e)" transform="matrix(.95927184 -.40701837 .40060775 .930916 -1.868805 9.482149)"/><path d="m32.666116 32.625813c-6.454711 17.736221 3.615376 11.129559 5.430381 5.182537 4.79956-2.260374 2.661596-.82758 5.50579-4.137054 4.137289-5.229087 8.53633-9.707755 10.604974-17.028477 0-4.18327-2.137289-5.229087-5.240256-4.18327-4.137288 1.045818-6.550409 4.47867-8.619053 7.616121-4.143641 5.192878-3.99685 5.788469-7.681836 12.550143z" fill="#864316" filter="url(#i)" transform="matrix(.96339903 .38828069 -.4001078 .93492113 14.61088 -15.425511)"/><path d="m3.195074 3.3425917c1.0343223 5.2290869 6.2059336 5.2290869 10.343223 7.3207223 6.205934 2.091635 7.240256 7.320722 7.240256 13.595626 0 1.458077.02994 12.657899 2.747073 9.831019 2.016869-2.098327 1.862279-2.287043 2.424538-4.601933 0-4.183269-2.068645-8.366539-2.068645-12.549807-1.034322-4.18327-5.17161-8.3665404-7.240256-11.5039925-2.068644-3.1374521-5.171611-6.2749043-9.3089-5.22908688-1.0343222 0-4.137289 1.04581728-4.137289 3.13745208z" fill="#864316" filter="url(#f)" transform="matrix(1.0370332 -.11227921 .11051079 1.0063787 -1.313346 2.91341)"/><path d="m12.503975 35.762931c-3.7034048 3.628311-9.173976 6.661129-10.3432232 11.412357-1.0343222 3.137452 5.1029667 6.274903 9.2402562 4.183269 3.102967-2.091635 7.240256-4.091634 10.343223-7.229087 3.102966-3.137452 7.148532-5.249914 4.320902-11.035347-6.29072 3.604602-8.550671-1.041417-13.561158 2.668808z" fill="#bc4e09" filter="url(#g)" transform="matrix(1.0431798 0 0 1.0123436 .677292 -.852441)"/><path d="m36.293387 33.165151c2.068644-2.091635 3.102967-7.320722 7.240255-8.366539 3.102968 0 6.68235-4.604892 6.68235.624195-2.068644 3.137453-6.681811 6.950133-8.750456 11.133403-2.068644 0-6.206472-1.299425-5.172149-3.391059z" fill="#bc4e09" filter="url(#j)" transform="matrix(.96339903 .38828069 -.4001078 .93492113 14.61088 -15.425511)"/><path d="m30.362031 41.946201c-2.415436-4.123989 3.395913-8.052115 10.329826-4.22367 5.362245 3.324052 9.573474 6.944123 10.791445 9.608881 1.295177 3.052663-2.3271 8.357892-4.137288 7.412357-7.240256 0-15.94966-12.797568-16.983983-12.797568z" fill="#d96e21" filter="url(#h)" transform="matrix(.93880329 -.44138747 .45483223 .91105243 -15.426761 17.93888)"/><path d="m29.378448 36.607943c-5.318739-5.800218-6.059938-1.53495-6.257354 3.337369-2.068644 4.18327 1.267292 10.469074 3.335937 14.652344 1.034322 2.091635 2.475158 3.270588 5.578125 4.316406 4.137289 1.045817 7.826459-2.351887 5.757813-6.535156-2.068644-4.18327-2.171591-4.421142-4.240235-7.558594l-2.15625-4.875s-1.074071-2.307951-2.018036-3.337369z" fill="#aa551b" filter="url(#k)" transform="matrix(1.0431798 0 0 1.0123436 .677292 -.852441)"/><path d="m21.617389 39.126233c.802676 6.685619 4.871647 10.933745 6.940292 15.117015 3.989271 3.473944 5.552596-4.160607.99007-9.422936l-5.514246-8.866343c-2.457055-.334813-2.974878 1.400187-2.416116 3.172264z" fill="#d96e21" filter="url(#l)" transform="matrix(1.0418818 0 0 1.0121232 2.434234 -3.046089)"/></g></svg>